:SAMPLES-PER-SECOND 30
:FULLY-SPECIFIED
:DEGREES
495
root  3.52843 40.5179 -9.23177 -51.0454 -85.2942 52.5796
RightUpLeg  -1.67636 -10.6607 -5.67297
RightLeg  12.2211 -4.61182 4.11214
RightFoot  -11.1638 -0.071052 -2.85498
RightToes  0.00048216 0.542163 -0.142577
Spine  12.6244 -0.290829 7.26383
Spine1  -1.51436 1.54496 -6.4728
HEad  -12.3642 -9.42102 -1.8175
LeftShoulder1  1.85926 -4.2418 -17.2886
LeftArm  -17.5825 24.02 -10.1006
LeftForeArm  11.9732 -8.10986 -1.14331
LeftHand  -0.25398 0.0180481 5.50724
RightShoulder  1.59902 3.6082 15.75
RightArm  -18.857 -14.7914 5.28402
RightForeArm  -7.63054 9.28844 3.99632
RightHand  -2.44187 7.03442 -22.9315
LeftUpLeg  -12.4682 14.9438 -2.55239
LeftLeg  19.9124 -11.6545 -4.32281
LeftFoot  -8.88317 0.417569 -16.6796
LeftToes  1.06246e-005 4.65856e-005 -8.18501e-006
496
root  3.70778 40.5735 -9.19697 -53.3366 -85.2749 54.7149
RightUpLeg  -1.67204 -10.5858 -5.83463
RightLeg  11.8302 -4.55035 4.14902
RightFoot  -10.3955 -0.0458827 -2.94104
RightToes  0.00048216 0.542163 -0.142577
Spine  12.8869 -0.257259 6.92941
Spine1  -1.71599 1.52072 -6.18238
HEad  -13.2356 -10.1434 -0.482723
LeftShoulder1  1.58168 -3.82157 -14.6659
LeftArm  -18.7872 23.4222 -8.66134
LeftForeArm  12.58 -9.45487 -0.866398
LeftHand  -0.25398 0.0180481 5.50724
RightShoulder  1.31965 2.93922 13.5528
RightArm  -19.2129 -13.5355 3.52153
RightForeArm  -9.3562 8.82559 3.97047
RightHand  -2.71046 7.75206 -24.0273
LeftUpLeg  -12.2988 11.8287 -1.74178
LeftLeg  20.4581 -8.02536 -2.98631
LeftFoot  -10.7666 0.137711 -13.9498
LeftToes  1.06246e-005 4.65856e-005 -8.18501e-006
497
root  3.82199 40.6436 -9.15572 -59.5585 -85.4464 60.9352
RightUpLeg  -1.5982 -10.4022 -5.93658
RightLeg  11.043 -4.37306 4.14963
RightFoot  -9.65508 -0.0187085 -3.1625
RightToes  0.00048216 0.542163 -0.142577
Spine  12.7552 -0.0489101 6.47064
Spine1  -1.98399 1.65221 -5.99467
HEad  -13.3405 -10.5826 0.459568
LeftShoulder1  1.38691 -3.53608 -12.5856
LeftArm  -19.9937 22.9736 -7.14694
LeftForeArm  12.9064 -11.2914 -0.799169
LeftHand  -0.25398 0.0180481 5.50724
RightShoulder  1.09455 2.32501 11.6729
RightArm  -19.6691 -12.2912 2.15216
RightForeArm  -11.1254 8.74048 4.0091
RightHand  -2.93955 8.24089 -25.0738
LeftUpLeg  -11.5145 10.2222 -1.08389
LeftLeg  19.8375 -2.36218 -0.632822
LeftFoot  -11.3988 0.0573374 -10.2842
LeftToes  1.06246e-005 4.65856e-005 -8.18501e-006
498
root  3.88808 40.6833 -9.09674 -65.7415 -85.7929 67.0855
RightUpLeg  -1.50545 -10.19 -5.81021
RightLeg  10.4531 -4.13548 4.09104
RightFoot  -9.10857 0.0036268 -3.34696
RightToes  0.00048216 0.542163 -0.142577
Spine  12.3736 0.105264 6.11665
Spine1  -2.16393 1.69289 -5.57449
HEad  -13.1131 -10.6772 0.855862
LeftShoulder1  1.22967 -3.21085 -11.0476
LeftArm  -21.5191 22.6307 -5.79441
LeftForeArm  13.135 -13.4846 -0.987815
LeftHand  -0.25398 0.0180481 5.50724
RightShoulder  0.946682 1.93791 10.1402
RightArm  -20.2249 -11.0113 1.15273
RightForeArm  -13.0733 8.85215 4.10017
RightHand  -3.23039 8.9052 -26.2204
LeftUpLeg  -10.0896 9.99259 -0.229086
LeftLeg  18.299 1.9544 1.05487
LeftFoot  -9.60944 0.180031 -8.07252
LeftToes  1.06246e-005 4.65856e-005 -8.18501e-006
499
root  3.9084 40.6726 -9.01171 -67.2866 -86.4082 68.5227
RightUpLeg  -1.40398 -9.92732 -5.3145
RightLeg  10.2653 -4.08263 4.05176
RightFoot  -8.77962 0.0178224 -3.45039
RightToes  0.00048216 0.542163 -0.142577
Spine  11.6999 0.0484248 6.21661
Spine1  -2.05262 1.54334 -5.01231
HEad  -12.9173 -10.624 0.950266
LeftShoulder1  1.08933 -2.82675 -9.81846
LeftArm  -23.2331 22.0799 -4.91087
LeftForeArm  13.6021 -15.2298 -1.27419
LeftHand  -0.25398 0.0180481 5.50724
RightShoulder  0.87299 1.82225 9.01467
RightArm  -20.8454 -9.7493 0.496901
RightForeArm  -14.6315 8.96072 4.16844
RightHand  -3.54729 9.70957 -27.2168
LeftUpLeg  -8.07472 10.7356 1.05216
LeftLeg  15.7949 2.88501 1.21319
LeftFoot  -6.71879 0.342262 -7.4449
LeftToes  1.06246e-005 4.65856e-005 -8.18501e-006
500
root  3.88783 40.6501 -8.90945 -63.0284 -87.1714 64.1262
RightUpLeg  -1.08831 -9.57336 -4.62539
RightLeg  9.9227 -4.33838 4.10475
RightFoot  -8.50354 0.0303345 -3.54282
RightToes  0.00048216 0.542163 -0.142577
Spine  10.7564 -0.0857413 6.52057
Spine1  -1.58974 1.31981 -4.42596
HEad  -12.8195 -10.6966 0.886945
LeftShoulder1  0.998204 -2.54784 -9.02576
LeftArm  -24.2955 20.8447 -4.65225
LeftForeArm  13.1174 -15.5376 -1.31522
LeftHand  -0.25398 0.0180481 5.50724
RightShoulder  0.839257 1.80092 8.37449
RightArm  -21.5001 -8.49468 -0.0167453
RightForeArm  -15.5301 8.98231 4.1765
RightHand  -3.76243 10.2717 -27.8017
LeftUpLeg  -5.72999 11.0818 2.55834
LeftLeg  12.512 2.56287 0.271055
LeftFoot  -4.93535 0.416492 -6.90354
LeftToes  1.06246e-005 4.65856e-005 -8.18501e-006
